<svg xmlns="http://www.w3.org/2000/svg" version="1.1" xmlns:xlink="http://www.w3.org/1999/xlink" xmlns:svgjs="http://svgjs.dev/svgjs" width="100%" height="100%" viewBox="0 0 1000 600"><rect width="1000" height="600" x="0" y="0" fill="#262223"/><g><rect width="333.3333333333333" height="333.3333333333333" y="77.77777014838344" fill="#ddc6b6" transform="matrix(2.2499999313354513,0,0,2.2499999313354517,0,-249.99999084472722)" x="55.55555725097656"/><path d="M165.30074698233759 319.44444445222643L165.30074698233759 319.44444445222643Q156.05697284099296 319.44444445222643 150.7670253972736 312.38209193715784L150.7670253972736 312.38209193715784Q146.04970113045172 305.89236259898667 146.04970113045172 295.0943255489203L146.04970113045172 295.0943255489203Q146.04970113045172 281.73311808797973 155.07533310916875 263.0819631833198L155.07533310916875 263.0819631833198Q126.79865527856586 261.33682588229897 126.79865527856586 235.02342751534454L126.79865527856586 235.02342751534454Q126.79865527856586 220.10795714568226 136.23330381220964 202.8201907574448L136.23330381220964 202.8201907574448Q139.55997179228055 196.5486035819013 143.704672882205 190.93144289424052Q147.82210620180098 185.34154997690823 152.73030486092202 181.0332422650131L152.73030486092202 181.0332422650131Q165.08260481970999 169.44443987542172 178.0620634960523 169.44443987542172L178.0620634960523 169.44443987542172Q202.19404023673073 169.44443987542172 202.19404023673073 195.1579472951503L202.19404023673073 195.1579472951503Q202.19404023673073 202.02942541791978 199.93081529946937 209.69166888021428Q197.69485813253644 217.35391234250878 192.5685173107878 225.77965337399993L192.5685173107878 225.77965337399993Q187.66031865166676 234.23266217581946 182.17949681564826 242.38572550402606Q176.67140720930132 250.5387888322327 171.57233415788113 258.7736554714247L171.57233415788113 258.7736554714247Q180.7888405288973 257.19212479237456 191.99589413389037 253.26556586507772L191.99589413389037 253.26556586507772Q192.5685173107878 253.0746914727786 193.35928265031288 253.0746914727786L193.35928265031288 253.0746914727786Q194.94081332936298 253.0746914727786 194.94081332936298 254.46534775952958L194.94081332936298 254.46534775952958Q194.94081332936298 255.6378618836529 192.7866594734154 256.61950161547713L192.7866594734154 256.61950161547713Q186.29693013524425 258.7736554714247 180.407091744299 260.35518615047476Q174.51725335335374 261.9094490591964 169.22730590963442 262.7002143987215L169.22730590963442 262.7002143987215Q158.02025230464136 282.1421346429065 158.02025230464136 297.05760501256884L158.02025230464136 297.05760501256884Q158.02025230464136 304.3108319199365 160.39254832321654 309.02815618675845L160.39254832321654 309.02815618675845Q163.71921630328745 314.7271201854045 169.60905469423273 314.7271201854045L169.60905469423273 314.7271201854045Q180.407091744299 314.7271201854045 194.74993893706383 298.6391356916189L194.74993893706383 298.6391356916189Q200.8306517203082 291.95853196114865 214.16459141092037 268.7809271819659L214.16459141092037 268.7809271819659Q216.91863621409385 252.88381708047942 221.4450860886166 242.2766544227123L221.4450860886166 242.2766544227123Q226.1624103554385 231.28774298034685 233.79738604740456 231.28774298034685L233.79738604740456 231.28774298034685Q238.9237268691532 231.28774298034685 238.9237268691532 237.36845576359124L238.9237268691532 237.36845576359124Q238.9237268691532 240.50424935136303 236.7423052428772 245.82146456541082L236.7423052428772 245.82146456541082Q235.1880423341555 249.5571491004085 233.1156917891933 253.0746914727786Q231.07060901455952 256.61950161547713 228.88918738828352 259.946169595548L228.88918738828352 259.946169595548L221.82683487321492 269.7625669137901Q217.10951060639303 282.3330090352057 217.10951060639303 295.0943255489203L217.10951060639303 295.0943255489203Q217.10951060639303 299.2117588685163 217.70940155361893 302.5656946189157L217.70940155361893 302.5656946189157Q220.05442980186564 315.10886897000285 229.48907833550942 315.10886897000285L229.48907833550942 315.10886897000285Q253.64832284651632 315.10886897000285 281.8977329067908 260.9278093273722L281.8977329067908 260.9278093273722Q291.7141302250328 242.46752881501143 291.7141302250328 221.28047126980564L291.7141302250328 221.28047126980564Q291.7141302250328 201.64767663332148 280.53434439036823 193.38554222380102L280.53434439036823 193.38554222380102Q275.6261457312472 189.67712545913182 266.6005137525302 189.67712545913182L266.6005137525302 189.67712545913182Q256.97499082658726 189.67712545913182 252.44854095206452 194.96707290285113L252.44854095206452 194.96707290285113Q250.89427804334284 196.5486035819013 249.72176391921946 196.5486035819013L249.72176391921946 196.5486035819013Q248.52198202476765 196.5486035819013 248.52198202476765 195.56696385007703L248.52198202476765 195.56696385007703Q248.52198202476765 194.58532411825283 249.31274736429273 193.7945587787278L249.31274736429273 193.7945587787278Q255.80247670246388 185.94144092413413 270.9088214644253 185.94144092413413L270.9088214644253 185.94144092413413Q279.7435790508432 185.94144092413413 285.8242918340876 188.88636011960673L285.8242918340876 188.88636011960673Q304.2845723464484 197.9119920983238 304.2845723464484 222.83473417852727L304.2845723464484 222.83473417852727Q304.2845723464484 241.29501469088805 294.2773006359071 260.54606054277394L294.2773006359071 260.54606054277394Q288.57833663726103 271.53497198513935 282.1158750694184 280.96962051878313Q275.6261457312472 290.3770012820985 268.37291882387944 297.84837035209387L268.37291882387944 297.84837035209387Q248.52198202476765 318.8445535050005 229.48907833550942 318.8445535050005L229.48907833550942 318.8445535050005Q214.382733573548 318.8445535050005 210.45617464625116 305.89236259898667L210.45617464625116 305.89236259898667Q209.0655183595002 301.5840548870915 209.0655183595002 295.88509088844546L209.0655183595002 295.88509088844546Q209.0655183595002 290.78601783702527 210.23803248362356 285.2779282306783L210.23803248362356 285.2779282306783Q206.52961571895435 290.78601783702527 202.87573449494198 295.3942710225333Q199.2491210412581 300.00252420804145 195.51343650626043 303.7382087430391L195.51343650626043 303.7382087430391Q179.8072007970731 319.44444445222643 165.30074698233759 319.44444445222643ZM156.847738180518 259.56442081094974L156.847738180518 259.56442081094974Q161.37418805504075 251.5204285640569 165.98244124054884 243.44916854683564Q170.59069442605693 235.40517629994284 175.11714430057964 227.17030966075086L175.11714430057964 227.17030966075086Q185.91518135064592 207.72838941656588 189.0509749384177 195.34882168744943L189.0509749384177 195.34882168744943Q190.2234890625411 190.2497486360293 190.2234890625411 186.1323153164333L190.2234890625411 186.1323153164333Q190.2234890625411 173.3709988027186 179.0437032278765 173.3709988027186L179.0437032278765 173.3709988027186Q170.97244321065523 173.3709988027186 161.15604589241315 182.0148819968373L161.15604589241315 182.0148819968373Q150.57615100497446 191.42226276015262 143.29565632727824 206.5558752924425L143.29565632727824 206.5558752924425Q135.63341286498374 222.45298539392897 135.63341286498374 235.59605069224202L135.63341286498374 235.59605069224202Q135.63341286498374 257.41026695500216 156.847738180518 259.56442081094974ZM308.0202568814461 316.4995252567538L308.0202568814461 316.4995252567538Q304.8844632936743 316.4995252567538 302.73030943772676 314.12722923817864L302.73030943772676 314.12722923817864Q301.1487787586766 312.16394977453024 301.1487787586766 310.00979591858265L301.1487787586766 310.00979591858265Q301.1487787586766 305.7014882066875 304.47544673874756 302.7565690112149L304.47544673874756 302.7565690112149Q307.4203659342202 300.3842729926397 310.77430168461956 300.3842729926397L310.77430168461956 300.3842729926397Q314.1009696646905 300.3842729926397 316.06424912833893 302.7565690112149L316.06424912833893 302.7565690112149Q317.645779807389 304.7198484748633 317.645779807389 306.87400233081087L317.645779807389 306.87400233081087Q317.645779807389 310.99143565040686 314.1009696646905 314.12722923817864L314.1009696646905 314.12722923817864Q311.5650670241446 316.4995252567538 308.0202568814461 316.4995252567538Z " fill="#262223" transform="matrix(2.2499999313354513,0,0,2.2499999313354517,0,-249.99999084472722)"/><path d="MNaN 244.44444105360233 " fill="#ddc6b6" transform="matrix(2.2499999313354513,0,0,2.2499999313354517,0,-249.99999084472722)"/></g></svg>